<svg width="28" height="28" viewBox="0 0 28 28" fill="none" xmlns="http://www.w3.org/2000/svg">
<path d="M18.8884 2.33333H9.1117C4.86504 2.33333 2.33337 4.86499 2.33337 9.11166V18.8767C2.33337 23.135 4.86504 25.6667 9.1117 25.6667H18.8767C23.1234 25.6667 25.655 23.135 25.655 18.8883V9.11166C25.6667 4.86499 23.135 2.33333 18.8884 2.33333ZM14 18.5267C11.5034 18.5267 9.47337 16.4967 9.47337 14C9.47337 11.5033 11.5034 9.47332 14 9.47332C16.4967 9.47332 18.5267 11.5033 18.5267 14C18.5267 16.4967 16.4967 18.5267 14 18.5267ZM20.9067 8.02666C20.8484 8.16666 20.7667 8.29499 20.6617 8.41166C20.545 8.51666 20.4167 8.59832 20.2767 8.65666C20.0644 8.74678 19.83 8.77161 19.6035 8.72797C19.377 8.68434 19.1687 8.57421 19.005 8.41166C18.9 8.29499 18.8184 8.16666 18.76 8.02666C18.7001 7.88644 18.6684 7.7358 18.6667 7.58332C18.6667 7.43166 18.7017 7.27999 18.76 7.13999C18.8184 6.98832 18.9 6.87166 19.005 6.75499C19.2734 6.48666 19.6817 6.35832 20.055 6.43999C20.1367 6.45166 20.2067 6.47499 20.2767 6.50999C20.3467 6.53332 20.4167 6.56832 20.4867 6.61499C20.545 6.64999 20.6034 6.70832 20.6617 6.75499C20.7667 6.87166 20.8484 6.98832 20.9067 7.13999C20.965 7.27999 21 7.43166 21 7.58332C21 7.73499 20.965 7.88666 20.9067 8.02666Z" fill="white"/>
</svg>
