<svg width="45" height="45" viewBox="0 0 45 45" fill="none" xmlns="http://www.w3.org/2000/svg">
<path d="M14.0627 14.3813V12.5625C14.0627 8.34375 17.4565 4.2 21.6752 3.80625C22.8474 3.69109 24.0308 3.82262 25.1491 4.19239C26.2674 4.56215 27.2959 5.16196 28.1684 5.95321C29.0409 6.74446 29.738 7.70962 30.215 8.78657C30.6919 9.86352 30.9381 11.0284 30.9377 12.2063V14.7938M16.8752 41.25H28.1252C35.6627 41.25 37.0127 38.2313 37.4065 34.5563L38.8127 23.3063C39.319 18.7313 38.0065 15 30.0002 15H15.0002C6.99399 15 5.68149 18.7313 6.18774 23.3063L7.59399 34.5563C7.98774 38.2313 9.33774 41.25 16.8752 41.25Z" stroke="white" stroke-width="3" stroke-miterlimit="10" stroke-linecap="round" stroke-linejoin="round"/>
<path d="M29.0529 22.5H29.0717M15.9279 22.5H15.9429" stroke="white" stroke-width="5" stroke-linecap="round" stroke-linejoin="round"/>
</svg>
