<svg width="28" height="28" viewBox="0 0 28 28" fill="none" xmlns="http://www.w3.org/2000/svg">
<path d="M25.6667 18.8883C25.6667 23.135 23.135 25.6667 18.8884 25.6667H17.5C16.8584 25.6667 16.3334 25.1417 16.3334 24.5V17.7683C16.3334 17.4533 16.59 17.185 16.905 17.185L18.9584 17.15C19.1217 17.1383 19.2617 17.0217 19.2967 16.8583L19.705 14.63C19.713 14.5795 19.7098 14.5279 19.6959 14.4787C19.6819 14.4295 19.6575 14.3839 19.6242 14.3451C19.5909 14.3063 19.5496 14.2751 19.5032 14.2538C19.4567 14.2325 19.4062 14.2215 19.355 14.2217L16.87 14.2567C16.5434 14.2567 16.2867 14 16.275 13.685L16.2284 10.8267C16.2284 10.64 16.38 10.4767 16.5784 10.4767L19.3784 10.43C19.5767 10.43 19.7284 10.2783 19.7284 10.08L19.6817 7.27999C19.6817 7.08166 19.53 6.92999 19.3317 6.92999L16.1817 6.97666C15.7219 6.98364 15.2679 7.0813 14.8459 7.26403C14.4239 7.44677 14.0421 7.71099 13.7224 8.04154C13.4027 8.3721 13.1513 8.76251 12.9827 9.19038C12.8142 9.61825 12.7317 10.0752 12.74 10.535L12.7984 13.7433C12.81 14.07 12.5534 14.3267 12.2267 14.3383L10.8267 14.3617C10.6284 14.3617 10.4767 14.5133 10.4767 14.7117L10.5117 16.9283C10.5117 17.1267 10.6634 17.2783 10.8617 17.2783L12.2617 17.255C12.5884 17.255 12.845 17.5117 12.8567 17.8267L12.9617 24.4767C12.9734 25.13 12.4484 25.6667 11.795 25.6667H9.1117C4.86504 25.6667 2.33337 23.135 2.33337 18.8767V9.11166C2.33337 4.86499 4.86504 2.33333 9.1117 2.33333H18.8884C23.135 2.33333 25.6667 4.86499 25.6667 9.11166V18.8883Z" fill="white"/>
</svg>
